<?xml version="1.0" encoding="utf-8"?>
<!-- Generated by Shoe Palace, Inc. http://www.shoepalace.com/ -->
<!DOCTYPE svg PUBLIC "-//W3C//DTD SVG 1.1//EN" "http://www.w3.org/Graphics/SVG/1.1/DTD/svg11.dtd">
<svg preserveAspectRatio="xMidYMid" width="256px" height="256px" viewBox="0 0 256 256" xmlns="http://www.w3.org/2000/svg" version="1.1" xmlns:xlink="http://www.w3.org/1999/xlink">
	<path fill="#000066" d="M26.478,145.822c-4.86,0-7.196-3.736-5.977-8.059c2.519-8.959,18.705-22.238,29.736-22.238c8.043,0,7.431,7.197,2.715,13.335l-2.606,2.888C40.998,140.922,32.331,145.822,26.478,145.822 M65.903,85.406c-14.078,0.005-29.579,8.617-39.315,16.773l0.769,1.114c15.111-10.593,36.08-17.48,41.86-7.149c3.052,5.45-2.129,16.458-9.426,25.157c1.745-3.842,0.593-11.218-9.582-11.218C33.296,110.083,0,132.488,0,155.418c0,9.184,6.372,15.176,16.868,15.176c28.093,0,66.192-46.049,66.192-69.178C83.06,93.246,78.36,85.406,65.903,85.406"/>
	<path fill="#000066" d="M102.071,145.822c-1.635,0-2.997-0.568-3.849-1.611c-0.888-1.092-1.152-2.641-0.731-4.238c0.935-3.469,4.673-6.193,8.517-6.193h9.042l-3.231,12.044L102.071,145.822L102.071,145.822z M128.057,109.718c-2.585-3.179-6.772-4.602-9.768-4.602h-16.43l-2.789,10.403h15.495l1.485,0.156c0.015,0,1.422,0.164,2.207,1.22c0.634,0.884,0.727,2.196,0.271,3.917l-0.732,2.738h-9.764c-8.403,0-20.117,6.029-22.729,15.767c-1.299,4.854-0.161,9.061,2.363,12.151c2.504,3.066,7.229,4.761,12.333,4.761h9.042h-0.005h11.492l5.39-20.127l3.969-14.796C131.441,115.486,129.755,111.79,128.057,109.718"/>
	<path fill="#000066" d="M240.92,105.117c-4.445,0-8.574,1.315-11.936,3.805c-3.392,2.512-5.262,5.529-6.377,9.691c-2.42,9.021,4.67,13.374,10.365,16.462c4.086,2.211,7.62,4.12,6.854,6.946c-0.539,2.029-1.427,3.808-6.452,3.808h-15.343l-2.783,10.397h16.981c4.555,0,8.756-0.947,12.143-3.547c3.391-2.609,5.307-6.242,6.488-10.68c1.138-4.221,0.371-8.252-2.346-11.262c-2.265-2.526-5.521-4.281-8.392-5.831c-3.679-1.979-7.146-3.847-6.54-6.109c0.371-1.37,1.729-3.28,4.7-3.28h14.924L256,105.117H240.92z"/>
	<path fill="#000066" d="M151.882,105.117c-4.444,0-8.573,1.315-11.934,3.805c-3.392,2.512-5.263,5.529-6.388,9.691c-2.414,9.021,4.68,13.374,10.373,16.462c4.09,2.211,7.614,4.12,6.855,6.946c-0.545,2.029-1.428,3.808-6.453,3.808h-15.34l-2.789,10.397h16.98c4.561,0,8.76-0.947,12.146-3.547c3.395-2.609,5.307-6.242,6.488-10.68c1.135-4.221,0.365-8.252-2.34-11.262c-2.265-2.526-5.526-4.281-8.402-5.831c-3.672-1.979-7.137-3.847-6.529-6.109c0.364-1.37,1.729-3.28,4.695-3.28h14.915l2.794-10.402L151.882,105.117L151.882,105.117z"/>
	<polygon fill="#000066" points="175.055,105.117 161.732,156.227 172.986,156.227 186.296,105.117 "/>
	<path fill="#000066" d="M216.232,105.117c-19.812,0.071-30.18,13.265-33.471,25.557c-3.896,14.572,3.86,25.555,18.047,25.555h9.508l2.783-10.399h-9.504c-5.31,0-12.611-4.181-9.669-15.154c2.339-8.726,10.845-15.154,20.177-15.154h6.037l2.789-10.402L216.232,105.117L216.232,105.117z"/>
</svg>
